<svg width="100" height="100" viewBox="0 0 100 100" fill="none" xmlns="http://www.w3.org/2000/svg">
<rect width="100" height="100" rx="32" fill="#EADEFC"/>
<path d="M41.2509 57.5C50.2274 57.5 57.5009 51.3437 57.5009 43.75C57.5009 36.1563 50.2274 30 41.2509 30C32.2743 30 25.0009 36.1563 25.0009 43.75C25.0009 46.7656 26.1493 49.5547 28.0946 51.8281C27.8212 52.5625 27.4149 53.2109 26.9852 53.7578C26.6102 54.2422 26.2274 54.6172 25.9462 54.875C25.8055 55 25.6884 55.1016 25.6102 55.1641C25.5712 55.1953 25.5399 55.2187 25.5243 55.2266L25.5087 55.2422C25.079 55.5625 24.8915 56.125 25.0634 56.6328C25.2352 57.1406 25.7118 57.5 26.2509 57.5C27.954 57.5 29.6727 57.0625 31.1024 56.5234C31.8212 56.25 32.493 55.9453 33.0712 55.6328C35.4774 56.8203 38.2665 57.5 41.2509 57.5ZM60.0009 43.75C60.0009 52.5234 52.2587 59.1328 43.0868 59.9219C44.9852 65.7344 51.2821 70 58.7509 70C61.7352 70 64.5243 69.3203 66.9305 68.1328C67.5165 68.4453 68.1805 68.75 68.8993 69.0234C70.329 69.5625 72.0477 70 73.7509 70C74.2899 70 74.7743 69.6484 74.9384 69.1328C75.1024 68.6172 74.9227 68.0547 74.4852 67.7344L74.4696 67.7187C74.454 67.7031 74.4227 67.6875 74.3837 67.6562C74.3055 67.5937 74.1884 67.5 74.0477 67.3672C73.7665 67.1094 73.3837 66.7344 73.0087 66.25C72.579 65.7031 72.1727 65.0469 71.8993 64.3203C73.8446 62.0547 74.993 59.2656 74.993 56.2422C74.993 48.9922 68.3602 43.0469 59.9462 42.5312C59.9774 42.9297 59.993 43.3359 59.993 43.7422L60.0009 43.75Z" fill="#AB81E7"/>
</svg>
